Coordinates
version=1
nRows=37
nColumns=19
inDegrees=yes

Units are S.I. units (second, meters, Newtons, ...)
If the header above contains a line with 'inDegrees', this indicates whether rotational values are in degrees (yes) or radians (no).

endheader
time	pelvis_tilt	pelvis_list	pelvis_rotation	pelvis_tx	pelvis_ty	pelvis_tz	hip_flexion_r	hip_adduction_r	hip_rotation_r	knee_angle_r	knee_angle_r_beta	ankle_angle_r	hip_flexion_l	hip_adduction_l	hip_rotation_l	knee_angle_l	knee_angle_l_beta	ankle_angle_l
     11.46666667	     -3.97978055	     -5.24642588	     -6.32296071	      2.42608553	      1.01782027	      1.08364872	     28.44761621	     10.84526408	     -2.49897797	      8.23773296	      0.14377556	      5.68490626	    -22.45331398	     -5.90446396	    -15.52782358	     69.75188744	      1.21740010	    -13.02799134
     11.47333333	     -3.71108390	     -5.76329564	     -6.47970772	      2.42456541	      1.01374884	      1.08357103	     28.71857039	     11.07890458	     -3.95973221	     11.37434335	      0.19851974	      5.22813777	    -21.15170308	     -6.33893448	    -14.52183430	     74.52857243	      1.30076898	    -12.58392863
     11.48000000	     -3.56093715	     -6.21805493	     -6.78602365	      2.42278830	      1.00908605	      1.08344647	     29.31201351	     11.21755115	     -5.35681029	     15.14257175	      0.26428773	      4.81202074	    -19.69704801	     -6.71417161	    -13.79276291	     79.17089255	      1.38179275	    -12.05125151
     11.48666667	     -3.47076780	     -6.61118038	     -7.18356384	      2.42084151	      1.00396671	      1.08320213	     30.08720731	     11.23677078	     -6.64232833	     19.34689172	      0.33766696	      4.51358021	    -18.14615430	     -7.06168082	    -13.26520637	     83.64508941	      1.45988221	    -11.43610045
     11.49333333	     -3.37216566	     -6.97106180	     -7.63663196	      2.41876410	      0.99860016	      1.08277034	     30.84870094	     11.18278297	     -7.68651551	     23.72051255	      0.41400104	      4.43550056	    -16.56880455	     -7.40700466	    -12.89011211	     87.91867070	      1.53447028	    -10.74987587
     11.50000000	     -2.67252923	     -7.71401759	     -8.15875211	      2.41672023	      0.99380107	      1.08228726	     30.76169622	     11.47812705	     -8.49787212	     27.92507946	      0.48738458	      4.66300833	    -15.79236926	     -8.17239691	    -12.91498875	     91.85057898	      1.60309502	     -9.97239510
     11.50666667	     -3.30444938	     -7.52125068	     -8.63979509	      2.41408017	      0.98758107	      1.08165694	     32.26774970	     10.98812069	     -8.76094579	     32.36880597	      0.56494224	      5.31707421	    -13.04020912	     -8.09577460	    -12.33288487	     95.87017338	      1.67325018	     -9.18895966
     11.51333333	     -2.52103727	     -8.24407534	     -9.09556161	      2.41160429	      0.98326033	      1.08103999	     31.74341360	     11.36628566	     -8.85668805	     36.10020531	      0.63006744	      6.44141218	    -12.14382824	     -9.06363901	    -12.39092307	     99.38766418	      1.73464198	     -8.48901010
     11.52000000	     -3.34540292	     -7.94135954	     -9.53851138	      2.40866099	      0.97739853	      1.08032951	     33.08169566	     10.95934087	     -8.51340110	     39.97125115	      0.69762994	      7.95984617	     -8.89279561	     -8.91948457	    -11.62681012	    102.95348016	      1.79687721	     -7.63292904
     11.52666667	     -3.43890220	     -8.09710603	     -9.86663278	      2.40568116	      0.97295382	      1.07966325	     33.19869803	     11.01177430	     -8.06031451	     43.16652269	      0.75339795	      9.87924661	     -6.48093169	     -9.39322795	    -11.08361948	    106.14018483	      1.85249569	     -6.88436222
     11.53333333	     -3.59402198	     -8.20002230	    -10.07626802	      2.40255463	      0.96904961	      1.07905289	     33.09182885	     11.07308213	     -7.47270077	     45.86970727	      0.80057742	     12.09104078	     -3.80274916	     -9.85413090	    -10.33644284	    109.05354385	      1.90334340	     -6.17448744
     11.54000000	     -3.78847612	     -8.26109592	    -10.08875498	      2.39932132	      0.96579487	      1.07839940	     32.72621728	     11.08249188	     -6.89474939	     48.05485356	      0.83871542	     14.48745938	     -0.84326614	    -10.30719080	     -9.32366673	    111.67621041	      1.94911757	     -5.51290750
     11.54666667	     -4.02017525	     -8.26360340	     -9.93052108	      2.39611917	      0.96319821	      1.07775535	     32.08549138	     11.01114056	     -6.36376258	     49.70755316	      0.86756047	     16.96545891	      2.35365693	    -10.68388874	     -8.09476289	    113.94753689	      1.98875969	     -4.91779924
     11.55333333	     -3.60307300	     -8.41962817	     -9.86156068	      2.39309633	      0.96210435	      1.07744091	     30.34895297	     11.18342112	     -5.50431530	     50.75237036	      0.88579597	     19.44948599	      4.76834932	    -11.17290198	     -7.14303141	    115.66756825	      2.01877990	     -4.31173734
     11.56000000	     -4.62862638	     -8.05681840	     -9.11351636	      2.39012237	      0.95996195	      1.07648397	     30.03637500	     10.57671015	     -5.48447465	     51.41737779	      0.89740254	     21.74798980	      9.37569106	    -11.00255285	     -5.13700604	    117.29886818	      2.04725146	     -3.76890420
     11.56666667	     -4.91974854	     -7.84305952	     -8.47427576	      2.38761099	      0.95941367	      1.07586883	     28.56425620	     10.17319581	     -5.21537813	     51.53918057	      0.89952839	     23.87074666	     12.98746923	    -10.87081556	     -3.55837279	    118.27851406	      2.06434950	     -3.22241451
     11.57333333	     -4.98762348	     -7.63714186	     -7.62857988	      2.38554277	      0.95979536	      1.07515402	     26.56309700	      9.67563584	     -5.16095835	     51.15735672	      0.89286431	     25.69191009	     16.32827761	    -10.57508954	     -1.97208810	    118.76644246	      2.07286546	     -2.64330824
     11.58000000	     -5.17986611	     -7.33076893	     -6.72787191	      2.38384251	      0.96053823	      1.07454829	     24.49383735	      9.11131037	     -5.17150065	     50.41333320	      0.87987865	     27.20708360	     19.72615364	    -10.07186337	     -0.51529042	    118.81592886	      2.07372916	     -2.00934138
     11.58666667	     -5.57238620	     -6.95806752	     -5.74239686	      2.38249235	      0.96156781	      1.07392753	     22.46744727	      8.48319152	     -5.34991908	     49.33942510	      0.86113542	     28.26167796	     23.25101132	     -9.37485334	      0.83599952	    118.46181822	      2.06754877	     -1.37642515
     11.59333333	     -5.92689853	     -6.50492553	     -4.79627260	      2.38166389	      0.96314140	      1.07342921	     20.23859778	      7.84180957	     -5.48465055	     47.97699286	      0.83735649	     28.90271250	     26.49395683	     -8.53062772	      1.86177172	    117.63465661	      2.05311207	     -0.67710605
     11.60000000	     -6.35949106	     -5.91050795	     -4.35122081	      2.38143380	      0.96526038	      1.07367911	     17.96824180	      7.29679804	     -5.07375455	     46.39810134	      0.80979963	     29.02008045	     29.39859147	     -7.86329941	      2.04937444	    116.28817455	      2.02961153	      0.08253502
     11.60666667	     -6.61586408	     -5.33460382	     -3.03238639	      2.38173196	      0.96789673	      1.07266073	     15.36451642	      6.40546995	     -5.82055666	     44.51279204	      0.77689478	     28.74049476	     32.13251029	     -6.54309916	      2.90868395	    114.63365963	      2.00073479	      0.81355150
     11.61333333	     -6.66632430	     -4.68511452	     -2.25786321	      2.38276702	      0.97142090	      1.07244515	     12.41930843	      5.70659789	     -5.92615918	     42.38489549	      0.73975598	     27.79975448	     34.13952131	     -5.57325762	      2.92284493	    112.47348334	      1.96303261	      1.63133492
     11.62000000	     -7.48193570	     -3.95613078	     -1.93100088	      2.38404932	      0.97427930	      1.07265887	     10.36776671	      5.04563782	     -5.70061799	     40.31722714	      0.70366836	     26.35204920	     36.70884552	     -4.85431297	      2.37141750	    110.04105321	      1.92057869	      2.42020605
     11.62666667	     -6.80990855	     -3.09686397	     -1.14713121	      2.38615597	      0.97946926	      1.07233190	      6.51255766	      4.10907216	     -6.03662787	     37.78347328	      0.65944601	     24.12601987	     37.34123542	     -3.75684523	      1.86619496	    107.11040591	      1.86942925	      3.30053386
     11.63333333	     -6.87622494	     -2.23487266	     -0.77563014	      2.38843774	      0.98395009	      1.07246732	      3.57575283	      3.26261265	     -6.11136642	     35.34755730	      0.61693126	     21.29685139	     38.54426338	     -2.99544771	      0.92871440	    103.96158800	      1.81447201	      4.12187353
     11.64000000	     -6.98602611	     -1.33457049	     -0.53607417	      2.39098578	      0.98863307	      1.07267208	      0.75632770	      2.36816826	     -6.19724111	     32.88643926	      0.57397664	     17.83880657	     39.56252014	     -2.33225789	     -0.24444559	    100.53043483	      1.75458709	      4.91351532
     11.64666667	     -6.99972470	     -0.46875370	     -0.45322772	      2.39377382	      0.99362382	      1.07308715	     -2.08299532	      1.49893036	     -6.30203463	     30.38565531	      0.53032973	     13.72075767	     40.24802121	     -1.88845770	     -1.65300056	     96.83581061	      1.69010373	      5.67515959
     11.65333333	     -7.09366039	      0.40069203	     -0.47602882	      2.39664280	      0.99866429	      1.07360189	     -4.69058998	      0.59476271	     -6.49717616	     27.95601530	      0.48792451	      9.10667578	     40.82888389	     -1.54965860	     -3.23227752	     92.89011865	      1.62123841	      6.35703721
     11.66000000	     -7.21928347	      1.22036895	     -0.60816189	      2.39952054	      1.00374106	      1.07418707	     -7.09123282	     -0.28727566	     -6.74189478	     25.63635951	      0.44743888	      4.08814094	     41.26051206	     -1.35045192	     -4.95119757	     88.71582682	      1.54838328	      6.99260153
     11.66666667	     -7.40621429	      2.00698171	     -0.76231205	      2.40233641	      1.00875866	      1.07477838	     -9.25378813	     -1.16255686	     -7.16472528	     23.45826730	      0.40942400	     -1.08755653	     41.60708882	     -1.19292821	     -6.73261010	     84.32077520	      1.47167516	      7.47398830
     11.67333333	     -7.65175001	      2.73859959	     -0.95769783	      2.40500640	      1.01365348	      1.07530832	    -11.13731822	     -2.00929589	     -7.69708492	     21.52493818	      0.37568104	     -6.25128105	     41.86546546	     -1.07153903	     -8.56028365	     79.71006225	      1.39120303	      7.86544692
     11.68000000	     -7.96900735	      3.40684302	     -1.12903599	      2.40748029	      1.01831044	      1.07571232	    -12.73317652	     -2.80575207	     -8.39510914	     19.88811588	      0.34711310	    -11.14598486	     42.08130301	     -0.92742391	    -10.35850084	     74.91353193	      1.30748779	      8.14934462
     11.68666667	     -8.38883220	      3.99008373	     -1.24549659	      2.40966113	      1.02264899	      1.07585666	    -13.98852602	     -3.52428436	     -9.19321310	     18.63829914	      0.32529969	    -15.57082589	     42.30816017	     -0.69513906	    -12.01781234	     69.93080218	      1.22052275	      8.25976699
     11.69333333	     -8.85279639	      4.45739138	     -1.29116647	      2.41155970	      1.02663262	      1.07572248	    -14.98279437	     -4.13118373	    -10.11484531	     17.80671505	      0.31078581	    -19.36721026	     42.50464864	     -0.38649337	    -13.48725967	     64.80443513	      1.13105076	      8.25324160
     11.70000000	     -9.40999234	      4.82633623	     -1.20560979	      2.41313088	      1.03010356	      1.07520024	    -15.64514585	     -4.65215659	    -11.23203090	     17.50938613	      0.30559644	    -22.40917707	     42.75185427	      0.10094336	    -14.62791088	     59.55923006	      1.03950466	      8.13280032
     11.70666667	    -10.16122342	      5.02310011	     -0.96202883	      2.41442152	      1.03284741	      1.07423218	    -15.89316187	     -5.01641681	    -12.52173075	     17.75220985	      0.30983451	    -24.66049333	     43.17784663	      0.72274657	    -15.30864032	     54.25239397	      0.94688290	      7.93070334
